<svg width="89" height="44" viewBox="0 0 89 44" fill="none" xmlns="http://www.w3.org/2000/svg">
<g clip-path="url(#clip0_79_18)" filter="url(#filter0_d_79_18)">
<path fill-rule="evenodd" clip-rule="evenodd" d="M15.7103 0.0822864C11.3553 0.515657 7.46152 3.06423 5.51464 6.75579C4.33406 8.99483 3.93256 10.7571 4.00903 13.3659L4.069 15.4146L4.94496 15.5785C5.81803 15.7421 5.82091 15.7454 5.82091 16.6116C5.82091 17.3965 5.86832 17.4805 6.31207 17.4805C6.93368 17.4805 7.05116 17.0858 7.05467 14.9859L7.05755 13.3718L7.7274 13.3739C8.09571 13.3751 8.74516 13.4307 9.17015 13.4974L9.94305 13.6187V15.9409V18.2631H10.9635H11.9837L11.2799 16.8446C9.16994 12.5923 10.4742 8.20166 14.3743 6.42768C17.0282 5.2207 20.2467 5.81999 22.8874 8.01286C23.4562 8.48516 24.0026 8.87177 24.1016 8.87177C24.3837 8.87177 28.2866 5.19566 28.2866 4.92996C28.2866 4.79946 27.8462 4.30212 27.3076 3.82492C24.0432 0.931807 20.0678 -0.351082 15.7103 0.0822864ZM30.5538 9.45383V18.2631H31.0449C31.729 18.2631 31.7842 17.9371 31.789 13.8609C31.7921 11.1233 31.8615 10.2143 32.1008 9.77881C32.2702 9.47046 32.4087 8.96744 32.4087 8.66066C32.4087 8.3032 32.5567 8.02773 32.821 7.89351C33.1472 7.72779 33.2332 7.48381 33.2332 6.72429C33.2332 6.19642 33.3259 5.71003 33.4393 5.64351C33.5662 5.56896 33.6454 5.90236 33.6454 6.5124C33.6454 7.2414 33.754 7.60531 34.0576 7.89351C34.2843 8.10873 34.4698 8.54366 34.4698 8.86023C34.4698 9.17679 34.5626 9.49003 34.6759 9.55655C34.8008 9.62973 34.882 11.0461 34.882 13.1503C34.882 15.9387 34.943 16.6979 35.1914 17.0029C35.4826 17.3603 35.5133 17.3627 35.7168 17.0402C35.8561 16.8196 36.1867 16.6979 36.6465 16.6979H37.3598L37.306 8.72503L37.2523 0.752198L33.903 0.698396L30.5538 0.64459V9.45383ZM39.0042 3.58916V6.52394H42.508H46.0118V11.299C46.0118 15.9779 46.02 16.0722 46.424 15.972C46.7849 15.8824 46.8362 15.7051 46.8362 14.5469C46.8362 12.9038 47.1656 12.5134 47.8311 13.3679C48.1978 13.8386 48.279 14.2107 48.279 15.4183C48.279 16.7477 48.3185 16.8935 48.6788 16.8935C48.9904 16.8935 49.0927 16.7346 49.1426 16.1721C49.2011 15.5112 49.2592 15.4508 49.8353 15.4517C50.1813 15.4523 50.5921 15.5279 50.7485 15.6196C50.9419 15.7331 51.128 15.6505 51.33 15.3617C51.5202 15.0896 51.8401 14.937 52.2201 14.937H52.8133V10.7305V6.52394H56.2141H59.6148V3.58916V0.654372H49.3095H39.0042V3.58916ZM60.8515 0.853548C60.8515 0.963113 61.672 2.43794 62.6747 4.13073C63.6776 5.8237 65.2611 8.55149 66.1938 10.1924C67.1264 11.8334 67.9298 13.1761 67.9791 13.1761C68.0285 13.1761 68.4488 12.9149 68.9132 12.5954C71.3718 10.9048 75.0137 10.7111 77.5546 12.136C77.9367 12.3501 78.2286 12.4062 78.3448 12.2879C78.5087 12.1208 80.1915 9.27149 83.8013 3.04896C84.4419 1.94489 84.966 0.954307 84.966 0.847872C84.966 0.727742 83.6162 0.654372 81.4069 0.654372H77.8479L75.5844 4.97301C74.3395 7.34823 73.2092 9.38066 73.0728 9.48944C72.8879 9.63677 72.2179 8.53583 70.4441 5.17081L68.0636 0.654372H64.4575C62.1475 0.654372 60.8515 0.725983 60.8515 0.853548ZM72.2583 11.8066C71.2745 12.0006 69.9095 12.6171 68.9465 13.3023L68.2821 13.7752L68.8348 14.8452C69.3853 15.9106 69.3919 15.9152 70.3365 15.9152C72.3298 15.9152 76.9183 14.4529 77.4804 13.6384C77.8889 13.0468 77.6661 12.7697 76.3546 12.2374C75.1813 11.7612 73.4246 11.5765 72.2583 11.8066ZM75.8973 15.0548C74.0858 15.8029 71.0767 16.4619 70.0748 16.3296C69.7584 16.2878 69.7141 16.4654 69.7141 17.7779C69.7141 18.8698 69.7821 19.2525 69.9659 19.1942C70.1047 19.1504 70.2809 18.9009 70.3578 18.6399C70.4938 18.1778 70.4979 18.1768 70.5179 18.6055C70.5406 19.0899 70.9435 19.1466 72.4965 18.8835C73.1969 18.7647 73.321 18.6708 73.321 18.2588C73.321 17.8524 73.432 17.7638 74.0065 17.7115C74.5545 17.6616 74.714 17.7295 74.8022 18.05C74.8766 18.3202 75.0632 18.439 75.3748 18.4145C75.7891 18.3818 75.8272 18.2956 75.7425 17.5814C75.6667 16.943 75.7738 16.582 76.2825 15.763C76.9754 14.6474 76.9583 14.6163 75.8973 15.0548ZM23.3917 17.0831C22.8866 17.8512 20.3137 19.6783 18.7026 20.4132C16.5504 21.395 14.4815 21.8043 10.9074 21.9553L7.99349 22.0784L8.92323 22.8005C11.711 24.9664 14.3102 25.7946 17.878 25.6543C21.5741 25.5089 24.1003 24.4628 27.0106 21.8725L28.5607 20.4926L26.3471 18.5953C25.1299 17.5517 24.0237 16.6979 23.8895 16.6979C23.7551 16.6979 23.5313 16.8712 23.3917 17.0831ZM41.7161 17.6761C41.7161 17.9451 41.7629 18.0553 41.82 17.9207C41.8773 17.7863 41.8773 17.5662 41.82 17.4316C41.7629 17.2971 41.7161 17.4071 41.7161 17.6761ZM44.1568 17.6761C44.1568 17.9283 44.2611 18.067 44.4145 18.0185C44.5563 17.9737 44.6721 17.8195 44.6721 17.6761C44.6721 17.5327 44.5563 17.3785 44.4145 17.3337C44.2611 17.2852 44.1568 17.4239 44.1568 17.6761ZM55.0805 18.157C55.0805 18.7352 54.991 18.8293 54.153 19.1331C53.4288 19.3957 53.2255 19.5672 53.2255 19.9152C53.2255 20.3566 53.1909 20.3623 49.7732 20.4844C41.0259 20.797 35.3528 20.8593 35.2126 20.644C34.9999 20.3171 33.2567 19.6325 32.6402 19.6339C32.3428 19.6345 31.7519 19.7266 31.3267 19.8387L30.5538 20.0424V22.6745V25.3066H33.8441H37.1344L37.1933 23.399L37.2523 21.4914L41.6246 21.4386L45.9967 21.3858L46.0559 23.2973L46.1148 25.2088L49.4641 25.2626L52.8133 25.3164V23.3527V21.3891L61.1091 21.4403L69.4049 21.4914L69.4639 23.399L69.5228 25.3066H72.8131H76.1034V23.0856V20.8645L74.2004 20.7475C73.1536 20.6832 72.2649 20.538 72.2251 20.4251C72.1352 20.1688 70.7405 20.1565 70.0496 20.4057C69.6028 20.567 69.5255 20.5345 69.4694 20.1612C69.3866 19.6088 68.7116 19.5268 66.7847 19.8354C65.6589 20.0156 65.3125 20.15 65.2335 20.437C65.1472 20.7503 64.9328 20.8066 63.8281 20.8066C63.1112 20.8066 62.4674 20.7186 62.3973 20.611C62.3256 20.5008 61.3303 20.4153 60.118 20.4153C58.1705 20.4153 57.966 20.3813 57.966 20.0575C57.966 19.8196 57.6206 19.546 56.9355 19.2413C56.0708 18.8569 55.9049 18.6978 55.9049 18.2525C55.9049 17.8862 55.7771 17.69 55.4927 17.6194C55.1425 17.5325 55.0805 17.6135 55.0805 18.157ZM40.051 18.5728C40.0609 18.8007 40.1097 18.8471 40.1755 18.6912C40.235 18.5499 40.2276 18.3811 40.1592 18.3161C40.0908 18.2511 40.0421 18.3666 40.051 18.5728ZM20.6268 27.4555C19.1101 27.7204 18.3934 28.5073 18.3934 29.908C18.3934 31.3241 19.3032 32.1374 21.2268 32.4417C22.3983 32.6268 23.0265 33.1165 22.8332 33.694C22.5461 34.5528 21.2694 34.7206 19.9135 34.0779C19.0385 33.6629 19.0087 33.6616 18.5938 34.018C17.5546 34.9108 18.9406 35.9468 21.1697 35.9433C23.4597 35.9397 24.5766 35.0507 24.5766 33.2313C24.5766 32.006 24.0094 31.5037 21.9886 30.9393C20.7909 30.6049 20.3477 30.3854 20.1849 30.0461C19.71 29.0565 21.5932 28.5335 22.84 29.3089C23.3594 29.6321 23.3973 29.6282 23.8748 29.2023C24.5801 28.5732 24.494 28.2696 23.4946 27.8632C22.3678 27.405 21.5675 27.2913 20.6268 27.4555ZM36.0331 27.5619C34.684 27.8871 34.0529 28.3752 33.3713 29.621C32.855 30.5648 32.7987 30.8405 32.8813 32.0251C33.051 34.4581 34.619 35.8626 37.1719 35.8687C38.2985 35.8713 38.6694 35.7848 39.3144 35.3694C40.3768 34.685 40.7851 34.181 41.1868 33.0582C42.3561 29.7904 39.486 26.7296 36.0331 27.5619ZM78.6797 27.4406C77.1026 27.8127 76.5156 28.4856 76.5156 29.9217C76.5156 31.286 77.0136 31.8623 78.5388 32.2634C80.546 32.7915 80.8439 32.9433 80.8439 33.4389C80.8439 33.9717 80.1381 34.5023 79.4293 34.5023C79.1552 34.5023 78.528 34.3113 78.0356 34.0779C77.1607 33.6629 77.1308 33.6616 76.7159 34.018C75.6667 34.9194 76.9705 35.8718 79.2535 35.8718C81.4494 35.8718 82.6988 35.0073 82.6988 33.4878C82.6988 31.9966 81.9257 31.2998 79.8133 30.8874C78.3609 30.6037 77.7232 29.8109 78.4726 29.2205C78.9025 28.8818 80.3055 28.9366 80.9154 29.3159C81.4034 29.6194 81.4465 29.6098 81.9585 29.0857C82.2524 28.7849 82.4927 28.4737 82.4927 28.3942C82.4927 28.1436 80.9824 27.5103 80.1225 27.4003C79.669 27.3422 79.0198 27.3604 78.6797 27.4406ZM6.53136 27.7088C6.47571 27.8464 6.45552 29.7174 6.48623 31.8665L6.54229 35.774L8.37025 35.831C11.5534 35.93 13.3145 34.9828 13.9784 32.815C14.7134 30.4153 13.3477 28.2265 10.7675 27.6689C9.40202 27.3737 6.65626 27.3997 6.53136 27.7088ZM15.449 27.5799C15.368 27.6568 15.3018 29.5589 15.3018 31.807V35.8943L16.1778 35.8341L17.0537 35.774V31.6653V27.5566L16.3249 27.4983C15.9243 27.4664 15.53 27.503 15.449 27.5799ZM27.8746 27.6785C26.0518 28.3686 24.9473 30.6471 25.4205 32.7416C25.8743 34.7504 27.2812 35.863 29.3753 35.8687C30.6779 35.8722 31.6958 35.5498 32.25 34.9585C32.5736 34.6132 32.5773 34.5383 32.2898 34.1489C31.9244 33.6537 31.4454 33.6099 30.8751 34.0194C30.3965 34.363 29.1275 34.3945 28.4022 34.0808C26.8315 33.4013 26.6514 30.6847 28.1003 29.5274C28.8464 28.9313 29.793 28.8726 30.8611 29.356C31.5748 29.6791 31.607 29.6763 32.0503 29.2555C32.6078 28.7262 32.4108 28.3093 31.3627 27.8016C30.5839 27.4242 28.7203 27.3584 27.8746 27.6785ZM41.4774 27.6975C41.4774 27.8286 42.0667 29.3474 42.7868 31.0725C43.5072 32.7974 44.2382 34.561 44.4116 34.9914C44.6991 35.7053 44.7995 35.7793 45.5532 35.8331L46.3797 35.8924L46.95 34.4635C47.2637 33.6778 48.0065 31.8463 48.6007 30.3936C49.1949 28.9409 49.6382 27.6863 49.5861 27.6055C49.534 27.5247 49.136 27.4588 48.7019 27.4588H47.9125L46.8076 30.294C46.1998 31.8531 45.6563 33.1288 45.5996 33.1284C45.5429 33.128 45.1369 32.2265 44.6972 31.1247C43.1857 27.3375 43.2646 27.4588 42.3134 27.4588C41.7932 27.4588 41.4774 27.549 41.4774 27.6975ZM50.2261 27.7088C50.1704 27.8464 50.1502 29.7174 50.1809 31.8665L50.237 35.774H53.4316H56.6263L56.6898 35.0468L56.7535 34.3197L54.4226 34.2642L52.0919 34.2088V33.3284V32.4479L54.1015 32.392L56.111 32.336V31.5605V30.7849H54.0382H51.9652L52.0287 29.9534L52.0919 29.1218L54.4107 29.0665L56.7294 29.0111V28.235V27.4588H53.5283C51.1197 27.4588 50.3021 27.5208 50.2261 27.7088ZM57.7599 31.6653V35.8718H58.5843H59.4087V34.4045V32.9371L60.0786 32.9402C60.6751 32.9431 60.8692 33.1038 61.8507 34.4076C62.9359 35.8493 62.967 35.8718 63.8602 35.8718C64.3879 35.8718 64.7675 35.7809 64.7675 35.6547C64.7675 35.5351 64.2893 34.8134 63.705 34.0505C62.9367 33.0478 62.7227 32.6387 62.9321 32.5733C63.0915 32.5236 63.523 32.1977 63.8916 31.849C64.4858 31.2867 64.5614 31.0934 64.5614 30.1347C64.5614 29.2602 64.4606 28.9403 64.033 28.4578C63.3415 27.6777 62.4391 27.4611 59.8725 27.46L57.7599 27.4588V31.6653ZM65.9452 27.5799C65.8642 27.6568 65.7981 29.5538 65.7981 31.7958V35.8718H66.7297H67.6613L67.6056 31.7142L67.55 27.5566L66.8212 27.4983C66.4205 27.4664 66.0262 27.503 65.9452 27.5799ZM69.0958 31.6704V35.882L72.2389 35.828L75.382 35.774L75.4455 35.0468L75.5092 34.3197L73.1783 34.2642L70.8477 34.2088V33.3284V32.4479L72.8572 32.392L74.8668 32.336V31.5605V30.7849H72.7939H70.7209L70.7844 29.9534L70.8477 29.1218L73.1664 29.0665L75.4851 29.0111V28.235V27.4588H72.2904H69.0958V31.6704ZM38.4724 29.3206C40.0341 30.4425 39.9943 33.0801 38.4023 33.9728C37.6585 34.3898 36.3565 34.4039 35.7512 34.0012C34.2967 33.0343 34.3173 30.2472 35.785 29.3977C36.5445 28.9579 37.9128 28.9188 38.4724 29.3206ZM62.3695 29.4296C63.0177 29.9135 63.0626 30.4468 62.5003 30.9805C62.1726 31.2916 61.8134 31.3718 60.7484 31.3718H59.4087V30.1979V29.024H60.6176C61.5286 29.024 61.9603 29.124 62.3695 29.4296ZM11.5095 29.8849C12.1004 30.4458 12.2102 30.6892 12.2102 31.4374C12.2102 31.9253 12.1197 32.5505 12.0093 32.8263C11.7032 33.5907 10.6393 34.1094 9.37626 34.1102L8.2942 34.111V31.6653V29.2197H9.55145C10.7065 29.2197 10.8658 29.2739 11.5095 29.8849Z" fill="white"/>
</g>
<defs>
<filter id="filter0_d_79_18" x="0" y="0" width="89" height="44" filterUnits="userSpaceOnUse" color-interpolation-filters="sRGB">
<feFlood flood-opacity="0" result="BackgroundImageFix"/>
<feColorMatrix in="SourceAlpha" type="matrix" values="0 0 0 0 0 0 0 0 0 0 0 0 0 0 0 0 0 0 127 0" result="hardAlpha"/>
<feOffset dy="4"/>
<feGaussianBlur stdDeviation="2"/>
<feComposite in2="hardAlpha" operator="out"/>
<feColorMatrix type="matrix" values="0 0 0 0 0 0 0 0 0 0 0 0 0 0 0 0 0 0 0.25 0"/>
<feBlend mode="normal" in2="BackgroundImageFix" result="effect1_dropShadow_79_18"/>
<feBlend mode="normal" in="SourceGraphic" in2="effect1_dropShadow_79_18" result="shape"/>
</filter>
<clipPath id="clip0_79_18">
<rect width="81" height="36" fill="white" transform="translate(4)"/>
</clipPath>
</defs>
</svg>
